<svg id="Ebene_1" data-name="Ebene 1" xmlns="http://www.w3.org/2000/svg" viewBox="0 0 512 512">
  <defs>
    <style>
      .cls-1 {
        fill: #323537;
      }
    </style>
  </defs>
  <title>sp_grey-512x512</title>
  <g>
    <path class="cls-1" d="M256,128.43a25,25,0,1,0,25.13,25A25.05,25.05,0,0,0,256,128.43Z"/>
    <path class="cls-1" d="M371.23,435.52C446.4,347.72,512,204.31,512,126c0-18.07-5.15-33-12.92-42.17C467.34,46.36,367,7.68,256,7.68,146.35,7.68,44.66,46.36,12.92,83.85,5.15,93,0,108,0,126c0,78.42,65.82,222.19,141.15,310,26.81-26,55.74-52,81.17-77.92h16.57L188.68,482.21c12.6,9.73,25.14,17.28,37.38,22.11q11.7-73.14,23.42-146.27h13.89l23.37,146c12.19-4.92,24.68-12.53,37.22-22.29q-25-61.83-50-123.66h16.58C315.81,383.87,344.55,409.69,371.23,435.52ZM256,49.38c10.28,8.19,23.67,24.7,35,46.33H221C232.34,74.08,245.74,57.57,256,49.38Zm-38.36,260c-.9-2.54-2.06-5.84-3.36-9.89a58.51,58.51,0,0,0-15.65,12.81c-9.72,10.91-15.55,29.51-20.38,27s-1.54-41.13,10.85-66.37a71,71,0,0,1,14.17-19.11,410.39,410.39,0,0,1-5.6-68.81c0-29.17,7.91-56.84,18.59-79.85h79.49c10.67,23,18.59,50.68,18.59,79.85a411.61,411.61,0,0,1-5.6,68.83A71,71,0,0,1,322.89,273c12.39,25.24,15.67,63.91,10.85,66.37s-10.66-16.13-20.38-27a58.77,58.77,0,0,0-15.62-12.8c-1.3,4-2.46,7.34-3.36,9.88ZM285,326.75H227c-.56-1.72-1.93-6.07-3.66-12.56h65.26C286.92,320.68,285.55,325,285,326.75Z"/>
  </g>
</svg>
