<svg id="Ebene_1" data-name="Ebene 1" xmlns="http://www.w3.org/2000/svg" viewBox="0 0 32 32">
  <defs>
    <style>
      .cls-1 {
        fill: #323537;
      }

      .cls-2 {
        fill: #fff;
      }
    </style>
  </defs>
  <title>sp_grey-32x32</title>
  <path class="cls-1" d="M13.09,30.91,15,27h2.1l1.86,3.91C25.07,27.35,32,14,32,7.63A4.1,4.1,0,0,0,31.19,5C29.21,2.62,22.94.19,16,.19S2.79,2.62.81,5A4.1,4.1,0,0,0,0,7.63C0,14,6.93,27.35,13.09,30.91Z"/>
  <g>
    <path class="cls-2" d="M21.07,19.36A5.58,5.58,0,0,0,20,17.9a31.85,31.85,0,0,0,.42-5.25A14.74,14.74,0,0,0,19,6.56l-.35-.72A11.93,11.93,0,0,0,16,2.3a11.76,11.76,0,0,0-2.65,3.54L13,6.56a14.74,14.74,0,0,0-1.41,6.09A30.69,30.69,0,0,0,12,17.9a5.38,5.38,0,0,0-1.08,1.46c-.94,1.92-2.19,5.87-1.82,6.06s1.81-2.23,2.54-3.06a4.35,4.35,0,0,1,1.19-1c.1.31.19.56.25.76h5.82c.07-.2.15-.45.25-.76a4.55,4.55,0,0,1,1.19,1c.73.83,2.17,3.25,2.54,3.06S22,21.28,21.07,19.36ZM16,12.54a2.31,2.31,0,1,1,2.31-2.3A2.31,2.31,0,0,1,16,12.54Z"/>
    <polygon class="cls-2" points="13.53 23.82 13.8 25.09 18.2 25.09 18.47 23.82 13.53 23.82"/>
  </g>
</svg>
