<svg id="Ebene_1" data-name="Ebene 1" xmlns="http://www.w3.org/2000/svg" viewBox="0 0 64 64">
  <defs>
    <style>
      .cls-1 {
        fill: #323537;
      }
    </style>
  </defs>
  <title>sp_grey-64x64</title>
  <g>
    <path class="cls-1" d="M32,16.05a3.13,3.13,0,1,0,3.14,3.12A3.13,3.13,0,0,0,32,16.05Z"/>
    <path class="cls-1" d="M46.4,54.44c9.4-11,17.6-28.9,17.6-38.69a8.23,8.23,0,0,0-1.61-5.27C58.42,5.8,45.87,1,32,1,18.29,1,5.58,5.8,1.61,10.48A8.23,8.23,0,0,0,0,15.75C0,25.56,8.23,43.53,17.64,54.5c3.36-3.25,7-6.5,10.15-9.74h2.07L23.59,60.28A19.48,19.48,0,0,0,28.26,63q1.45-9.13,2.92-18.28h1.74Q34.38,53.88,35.84,63a19.94,19.94,0,0,0,4.66-2.79L34.24,44.76h2.08C39.48,48,43.07,51.21,46.4,54.44ZM32,6.17A19.2,19.2,0,0,1,36.38,12H27.62A19.37,19.37,0,0,1,32,6.17ZM27.21,38.68c-.12-.32-.26-.73-.42-1.24a7.32,7.32,0,0,0-2,1.6c-1.22,1.37-1.94,3.69-2.55,3.38s-.19-5.14,1.36-8.29a8.8,8.8,0,0,1,1.77-2.39,51.45,51.45,0,0,1-.7-8.6,24.11,24.11,0,0,1,2.32-10H37a24.11,24.11,0,0,1,2.32,10,51.45,51.45,0,0,1-.7,8.6,8.6,8.6,0,0,1,1.77,2.39c1.55,3.15,2,8,1.36,8.29s-1.33-2-2.55-3.38a7.45,7.45,0,0,0-2-1.6l-.42,1.24ZM35.62,41H28.38c-.07-.27-.24-1-.46-2h8.16C35.86,40,35.69,40.73,35.62,41Z"/>
  </g>
</svg>
