<svg id="Ebene_1" data-name="Ebene 1" xmlns="http://www.w3.org/2000/svg" viewBox="0 0 16 15.81">
  <defs>
    <style>
      .cls-1 {
        fill: #323537;
      }

      .cls-2 {
        fill: #fff;
      }
    </style>
  </defs>
  <title>sp_grey-16x16</title>
  <g>
    <path class="cls-1" d="M15.6,2.4C14.6,1.22,11.47,0,8,0S1.4,1.22.4,2.4A2.06,2.06,0,0,0,0,3.72C0,7.44,4.67,15.81,8,15.81H8c3.31,0,8-8.37,8-12.09A2.06,2.06,0,0,0,15.6,2.4Z"/>
    <g>
      <path class="cls-2" d="M10.53,9.14,10,8.41a6.94,6.94,0,0,0,.46-2.18,7.59,7.59,0,0,0-1-3A16.08,16.08,0,0,0,8,1.06,16.08,16.08,0,0,0,6.49,3.19a7.59,7.59,0,0,0-1,3A6.94,6.94,0,0,0,6,8.41l-.53.73-.92,3.48,1.87-2,.13.37h2.9l.13-.37,1.87,2ZM8,6.27a1.41,1.41,0,1,1,1.41-1.4A1.41,1.41,0,0,1,8,6.27Z"/>
      <polygon class="cls-2" points="6.76 11.91 6.9 12.91 9.1 12.91 9.24 11.91 6.76 11.91"/>
    </g>
  </g>
</svg>
